<svg xmlns="http://www.w3.org/2000/svg" xmlns:xlink="http://www.w3.org/1999/xlink" width="500" zoomAndPan="magnify" viewBox="0 0 375 374.999991" height="500" preserveAspectRatio="xMidYMid meet" version="1.0"><defs><g/><clipPath id="047b368b17"><path d="M 38 134 L 69 134 L 69 241 L 38 241 Z M 38 134 " clip-rule="nonzero"/></clipPath><clipPath id="b83e982263"><path d="M 45.347656 133.015625 L 98.433594 189.136719 L 42.3125 242.222656 L -10.773438 186.101562 Z M 45.347656 133.015625 " clip-rule="nonzero"/></clipPath><clipPath id="a810543997"><path d="M 45.347656 133.015625 L 98.433594 189.136719 L 42.3125 242.222656 L -10.773438 186.101562 Z M 45.347656 133.015625 " clip-rule="nonzero"/></clipPath><clipPath id="91c0a563ec"><path d="M 27 146 L 50 146 L 50 228 L 27 228 Z M 27 146 " clip-rule="nonzero"/></clipPath><clipPath id="30863974b2"><path d="M 32.289062 145.371094 L 73.003906 188.414062 L 29.957031 229.128906 L -10.757812 186.085938 Z M 32.289062 145.371094 " clip-rule="nonzero"/></clipPath><clipPath id="52abf23947"><path d="M 32.289062 145.371094 L 73.003906 188.414062 L 29.957031 229.128906 L -10.757812 186.085938 Z M 32.289062 145.371094 " clip-rule="nonzero"/></clipPath><clipPath id="bbad6ffb69"><path d="M 16 158 L 33 158 L 33 216 L 16 216 Z M 16 158 " clip-rule="nonzero"/></clipPath><clipPath id="734f9e6d4b"><path d="M 19.769531 157.566406 L 48.632812 188.078125 L 18.121094 216.9375 L -10.742188 186.425781 Z M 19.769531 157.566406 " clip-rule="nonzero"/></clipPath><clipPath id="dfd5edd172"><path d="M 19.769531 157.566406 L 48.632812 188.078125 L 18.121094 216.9375 L -10.742188 186.425781 Z M 19.769531 157.566406 " clip-rule="nonzero"/></clipPath></defs><g clip-path="url(#047b368b17)"><g clip-path="url(#b83e982263)"><g clip-path="url(#a810543997)"><path fill="#a620f8" d="M 39.679688 239.183594 C 38.226562 237.648438 38.292969 235.214844 39.832031 233.761719 C 66.09375 208.917969 67.25 167.339844 42.410156 141.074219 C 40.953125 139.539062 41.023438 137.109375 42.558594 135.652344 C 44.097656 134.195312 46.527344 134.265625 47.984375 135.804688 C 54.777344 142.984375 59.960938 151.28125 63.394531 160.46875 C 66.707031 169.34375 68.25 178.65625 67.984375 188.160156 C 67.722656 197.664062 65.65625 206.882812 61.859375 215.554688 C 57.925781 224.539062 52.285156 232.535156 45.105469 239.324219 C 43.566406 240.792969 41.136719 240.722656 39.679688 239.183594 Z M 39.679688 239.183594 " fill-opacity="1" fill-rule="nonzero"/></g></g></g><g clip-path="url(#91c0a563ec)"><g clip-path="url(#30863974b2)"><g clip-path="url(#52abf23947)"><path fill="#664dfa" d="M 27.941406 226.777344 C 26.828125 225.597656 26.878906 223.734375 28.058594 222.617188 C 48.195312 203.570312 49.082031 171.6875 30.035156 151.550781 C 28.917969 150.371094 28.96875 148.507812 30.148438 147.390625 C 31.328125 146.277344 33.191406 146.328125 34.308594 147.507812 C 39.515625 153.011719 43.492188 159.375 46.125 166.421875 C 48.664062 173.226562 49.847656 180.367188 49.644531 187.652344 C 49.441406 194.941406 47.859375 202.007812 44.949219 208.65625 C 41.929688 215.546875 37.605469 221.675781 32.101562 226.886719 C 30.921875 228.007812 29.058594 227.957031 27.941406 226.777344 Z M 27.941406 226.777344 " fill-opacity="1" fill-rule="nonzero"/></g></g></g><g clip-path="url(#bbad6ffb69)"><g clip-path="url(#734f9e6d4b)"><g clip-path="url(#dfd5edd172)"><path fill="#326bff" d="M 16.691406 215.242188 C 15.902344 214.40625 15.9375 213.085938 16.773438 212.296875 C 31.042969 198.800781 31.671875 176.210938 18.175781 161.945312 C 17.382812 161.109375 17.421875 159.789062 18.257812 158.996094 C 19.09375 158.207031 20.414062 158.242188 21.203125 159.078125 C 24.894531 162.980469 27.710938 167.488281 29.574219 172.476562 C 31.375 177.300781 32.214844 182.359375 32.070312 187.523438 C 31.925781 192.683594 30.804688 197.695312 28.742188 202.40625 C 26.605469 207.285156 23.539062 211.628906 19.640625 215.316406 C 18.804688 216.113281 17.484375 216.078125 16.691406 215.242188 Z M 16.691406 215.242188 " fill-opacity="1" fill-rule="nonzero"/></g></g></g><g fill="#ffffff" fill-opacity="1"><g transform="translate(72.90761, 172.470881)"><g><path d="M 10.625 0 L 6.21875 0 L 6.21875 -17.109375 L 0.578125 -17.109375 L 0.578125 -20.78125 L 16.28125 -20.78125 L 16.28125 -17.109375 L 10.625 -17.109375 Z M 10.625 0 "/></g></g></g><g fill="#ffffff" fill-opacity="1"><g transform="translate(89.764893, 172.470881)"><g><path d="M 7.015625 -11.5625 L 8.4375 -11.5625 C 9.832031 -11.5625 10.859375 -11.789062 11.515625 -12.25 C 12.179688 -12.71875 12.515625 -13.445312 12.515625 -14.4375 C 12.515625 -15.425781 12.175781 -16.128906 11.5 -16.546875 C 10.820312 -16.960938 9.773438 -17.171875 8.359375 -17.171875 L 7.015625 -17.171875 Z M 7.015625 -7.96875 L 7.015625 0 L 2.609375 0 L 2.609375 -20.78125 L 8.671875 -20.78125 C 11.492188 -20.78125 13.582031 -20.265625 14.9375 -19.234375 C 16.289062 -18.210938 16.96875 -16.65625 16.96875 -14.5625 C 16.96875 -13.332031 16.628906 -12.238281 15.953125 -11.28125 C 15.285156 -10.332031 14.335938 -9.585938 13.109375 -9.046875 C 16.234375 -4.378906 18.269531 -1.363281 19.21875 0 L 14.328125 0 L 9.359375 -7.96875 Z M 7.015625 -7.96875 "/></g></g></g><g fill="#ffffff" fill-opacity="1"><g transform="translate(108.981627, 172.470881)"><g><path d="M 15.34375 0 L 13.828125 -4.953125 L 6.25 -4.953125 L 4.75 0 L 0 0 L 7.328125 -20.859375 L 12.71875 -20.859375 L 20.078125 0 Z M 12.78125 -8.640625 C 11.382812 -13.117188 10.597656 -15.648438 10.421875 -16.234375 C 10.242188 -16.828125 10.117188 -17.296875 10.046875 -17.640625 C 9.734375 -16.421875 8.835938 -13.421875 7.359375 -8.640625 Z M 12.78125 -8.640625 "/></g></g></g><g fill="#ffffff" fill-opacity="1"><g transform="translate(129.065389, 172.470881)"><g><path d="M 11.4375 -17.40625 C 9.78125 -17.40625 8.492188 -16.78125 7.578125 -15.53125 C 6.671875 -14.289062 6.21875 -12.554688 6.21875 -10.328125 C 6.21875 -5.703125 7.957031 -3.390625 11.4375 -3.390625 C 12.894531 -3.390625 14.664062 -3.753906 16.75 -4.484375 L 16.75 -0.78125 C 15.039062 -0.0703125 13.132812 0.28125 11.03125 0.28125 C 8.007812 0.28125 5.695312 -0.632812 4.09375 -2.46875 C 2.488281 -4.300781 1.6875 -6.929688 1.6875 -10.359375 C 1.6875 -12.523438 2.078125 -14.421875 2.859375 -16.046875 C 3.648438 -17.671875 4.78125 -18.914062 6.25 -19.78125 C 7.726562 -20.644531 9.457031 -21.078125 11.4375 -21.078125 C 13.457031 -21.078125 15.488281 -20.585938 17.53125 -19.609375 L 16.109375 -16.03125 C 15.328125 -16.40625 14.539062 -16.726562 13.75 -17 C 12.96875 -17.269531 12.195312 -17.40625 11.4375 -17.40625 Z M 11.4375 -17.40625 "/></g></g></g><g fill="#ffffff" fill-opacity="1"><g transform="translate(147.614087, 172.470881)"><g><path d="M 19.328125 0 L 14.328125 0 L 8.890625 -8.75 L 7.015625 -7.421875 L 7.015625 0 L 2.609375 0 L 2.609375 -20.78125 L 7.015625 -20.78125 L 7.015625 -11.265625 L 8.75 -13.71875 L 14.390625 -20.78125 L 19.28125 -20.78125 L 12.03125 -11.578125 Z M 19.328125 0 "/></g></g></g><g fill="#ffffff" fill-opacity="1"><g transform="translate(166.94453, 172.470881)"><g><path d="M 2.609375 0 L 2.609375 -20.78125 L 7.015625 -20.78125 L 7.015625 0 Z M 2.609375 0 "/></g></g></g><g fill="#ffffff" fill-opacity="1"><g transform="translate(176.581324, 172.470881)"><g><path d="M 21.046875 0 L 15.453125 0 L 6.40625 -15.71875 L 6.28125 -15.71875 C 6.457031 -12.945312 6.546875 -10.96875 6.546875 -9.78125 L 6.546875 0 L 2.609375 0 L 2.609375 -20.78125 L 8.171875 -20.78125 L 17.203125 -5.21875 L 17.296875 -5.21875 C 17.148438 -7.914062 17.078125 -9.820312 17.078125 -10.9375 L 17.078125 -20.78125 L 21.046875 -20.78125 Z M 21.046875 0 "/></g></g></g><g fill="#ffffff" fill-opacity="1"><g transform="translate(200.246904, 172.470881)"><g><path d="M 10.5 -11.671875 L 18.75 -11.671875 L 18.75 -0.890625 C 17.414062 -0.453125 16.15625 -0.148438 14.96875 0.015625 C 13.789062 0.191406 12.585938 0.28125 11.359375 0.28125 C 8.222656 0.28125 5.828125 -0.640625 4.171875 -2.484375 C 2.515625 -4.328125 1.6875 -6.972656 1.6875 -10.421875 C 1.6875 -13.773438 2.644531 -16.390625 4.5625 -18.265625 C 6.488281 -20.140625 9.148438 -21.078125 12.546875 -21.078125 C 14.679688 -21.078125 16.738281 -20.648438 18.71875 -19.796875 L 17.25 -16.28125 C 15.738281 -17.03125 14.160156 -17.40625 12.515625 -17.40625 C 10.617188 -17.40625 9.09375 -16.765625 7.9375 -15.484375 C 6.789062 -14.210938 6.21875 -12.492188 6.21875 -10.328125 C 6.21875 -8.078125 6.679688 -6.359375 7.609375 -5.171875 C 8.535156 -3.984375 9.878906 -3.390625 11.640625 -3.390625 C 12.554688 -3.390625 13.488281 -3.484375 14.4375 -3.671875 L 14.4375 -8 L 10.5 -8 Z M 10.5 -11.671875 "/></g></g></g><g fill="#1a3cba" fill-opacity="1"><g transform="translate(72.90761, 212.970879)"><g><path d="M 14.875 -5.765625 C 14.875 -3.890625 14.195312 -2.410156 12.84375 -1.328125 C 11.5 -0.253906 9.625 0.28125 7.21875 0.28125 C 5 0.28125 3.039062 -0.132812 1.34375 -0.96875 L 1.34375 -5.0625 C 2.738281 -4.4375 3.921875 -3.992188 4.890625 -3.734375 C 5.867188 -3.484375 6.757812 -3.359375 7.5625 -3.359375 C 8.53125 -3.359375 9.269531 -3.539062 9.78125 -3.90625 C 10.300781 -4.28125 10.5625 -4.832031 10.5625 -5.5625 C 10.5625 -5.96875 10.445312 -6.328125 10.21875 -6.640625 C 9.988281 -6.960938 9.65625 -7.269531 9.21875 -7.5625 C 8.78125 -7.851562 7.882812 -8.320312 6.53125 -8.96875 C 5.257812 -9.5625 4.304688 -10.132812 3.671875 -10.6875 C 3.035156 -11.238281 2.523438 -11.878906 2.140625 -12.609375 C 1.765625 -13.335938 1.578125 -14.191406 1.578125 -15.171875 C 1.578125 -17.003906 2.195312 -18.445312 3.4375 -19.5 C 4.6875 -20.550781 6.410156 -21.078125 8.609375 -21.078125 C 9.691406 -21.078125 10.722656 -20.945312 11.703125 -20.6875 C 12.679688 -20.4375 13.707031 -20.078125 14.78125 -19.609375 L 13.359375 -16.1875 C 12.253906 -16.644531 11.335938 -16.960938 10.609375 -17.140625 C 9.878906 -17.316406 9.164062 -17.40625 8.46875 -17.40625 C 7.632812 -17.40625 6.992188 -17.210938 6.546875 -16.828125 C 6.109375 -16.441406 5.890625 -15.9375 5.890625 -15.3125 C 5.890625 -14.914062 5.976562 -14.570312 6.15625 -14.28125 C 6.332031 -14 6.617188 -13.722656 7.015625 -13.453125 C 7.410156 -13.179688 8.34375 -12.695312 9.8125 -12 C 11.75 -11.070312 13.078125 -10.140625 13.796875 -9.203125 C 14.515625 -8.265625 14.875 -7.117188 14.875 -5.765625 Z M 14.875 -5.765625 "/></g></g></g><g fill="#1a3cba" fill-opacity="1"><g transform="translate(88.940507, 212.970879)"><g><path d="M 11.40625 0 L 6.40625 -16.296875 L 6.28125 -16.296875 C 6.457031 -12.984375 6.546875 -10.773438 6.546875 -9.671875 L 6.546875 0 L 2.609375 0 L 2.609375 -20.78125 L 8.609375 -20.78125 L 13.53125 -4.890625 L 13.609375 -4.890625 L 18.828125 -20.78125 L 24.828125 -20.78125 L 24.828125 0 L 20.71875 0 L 20.71875 -9.828125 C 20.71875 -10.296875 20.722656 -10.832031 20.734375 -11.4375 C 20.753906 -12.050781 20.820312 -13.664062 20.9375 -16.28125 L 20.8125 -16.28125 L 15.453125 0 Z M 11.40625 0 "/></g></g></g><g fill="#1a3cba" fill-opacity="1"><g transform="translate(116.386893, 212.970879)"><g><path d="M 15.34375 0 L 13.828125 -4.953125 L 6.25 -4.953125 L 4.75 0 L 0 0 L 7.328125 -20.859375 L 12.71875 -20.859375 L 20.078125 0 Z M 12.78125 -8.640625 C 11.382812 -13.117188 10.597656 -15.648438 10.421875 -16.234375 C 10.242188 -16.828125 10.117188 -17.296875 10.046875 -17.640625 C 9.734375 -16.421875 8.835938 -13.421875 7.359375 -8.640625 Z M 12.78125 -8.640625 "/></g></g></g><g fill="#1a3cba" fill-opacity="1"><g transform="translate(136.470655, 212.970879)"><g><path d="M 7.015625 -11.5625 L 8.4375 -11.5625 C 9.832031 -11.5625 10.859375 -11.789062 11.515625 -12.25 C 12.179688 -12.71875 12.515625 -13.445312 12.515625 -14.4375 C 12.515625 -15.425781 12.175781 -16.128906 11.5 -16.546875 C 10.820312 -16.960938 9.773438 -17.171875 8.359375 -17.171875 L 7.015625 -17.171875 Z M 7.015625 -7.96875 L 7.015625 0 L 2.609375 0 L 2.609375 -20.78125 L 8.671875 -20.78125 C 11.492188 -20.78125 13.582031 -20.265625 14.9375 -19.234375 C 16.289062 -18.210938 16.96875 -16.65625 16.96875 -14.5625 C 16.96875 -13.332031 16.628906 -12.238281 15.953125 -11.28125 C 15.285156 -10.332031 14.335938 -9.585938 13.109375 -9.046875 C 16.234375 -4.378906 18.269531 -1.363281 19.21875 0 L 14.328125 0 L 9.359375 -7.96875 Z M 7.015625 -7.96875 "/></g></g></g><g fill="#1a3cba" fill-opacity="1"><g transform="translate(155.687389, 212.970879)"><g><path d="M 10.625 0 L 6.21875 0 L 6.21875 -17.109375 L 0.578125 -17.109375 L 0.578125 -20.78125 L 16.28125 -20.78125 L 16.28125 -17.109375 L 10.625 -17.109375 Z M 10.625 0 "/></g></g></g><g fill="#1a3cba" fill-opacity="1"><g transform="translate(172.544672, 212.970879)"><g><path d="M 14.875 -5.765625 C 14.875 -3.890625 14.195312 -2.410156 12.84375 -1.328125 C 11.5 -0.253906 9.625 0.28125 7.21875 0.28125 C 5 0.28125 3.039062 -0.132812 1.34375 -0.96875 L 1.34375 -5.0625 C 2.738281 -4.4375 3.921875 -3.992188 4.890625 -3.734375 C 5.867188 -3.484375 6.757812 -3.359375 7.5625 -3.359375 C 8.53125 -3.359375 9.269531 -3.539062 9.78125 -3.90625 C 10.300781 -4.28125 10.5625 -4.832031 10.5625 -5.5625 C 10.5625 -5.96875 10.445312 -6.328125 10.21875 -6.640625 C 9.988281 -6.960938 9.65625 -7.269531 9.21875 -7.5625 C 8.78125 -7.851562 7.882812 -8.320312 6.53125 -8.96875 C 5.257812 -9.5625 4.304688 -10.132812 3.671875 -10.6875 C 3.035156 -11.238281 2.523438 -11.878906 2.140625 -12.609375 C 1.765625 -13.335938 1.578125 -14.191406 1.578125 -15.171875 C 1.578125 -17.003906 2.195312 -18.445312 3.4375 -19.5 C 4.6875 -20.550781 6.410156 -21.078125 8.609375 -21.078125 C 9.691406 -21.078125 10.722656 -20.945312 11.703125 -20.6875 C 12.679688 -20.4375 13.707031 -20.078125 14.78125 -19.609375 L 13.359375 -16.1875 C 12.253906 -16.644531 11.335938 -16.960938 10.609375 -17.140625 C 9.878906 -17.316406 9.164062 -17.40625 8.46875 -17.40625 C 7.632812 -17.40625 6.992188 -17.210938 6.546875 -16.828125 C 6.109375 -16.441406 5.890625 -15.9375 5.890625 -15.3125 C 5.890625 -14.914062 5.976562 -14.570312 6.15625 -14.28125 C 6.332031 -14 6.617188 -13.722656 7.015625 -13.453125 C 7.410156 -13.179688 8.34375 -12.695312 9.8125 -12 C 11.75 -11.070312 13.078125 -10.140625 13.796875 -9.203125 C 14.515625 -8.265625 14.875 -7.117188 14.875 -5.765625 Z M 14.875 -5.765625 "/></g></g></g><g fill="#1a3cba" fill-opacity="1"><g transform="translate(188.577569, 212.970879)"><g/></g></g><g fill="#ffffff" fill-opacity="1"><g transform="translate(196.141977, 212.970879)"><g><path d="M 14.875 -5.765625 C 14.875 -3.890625 14.195312 -2.410156 12.84375 -1.328125 C 11.5 -0.253906 9.625 0.28125 7.21875 0.28125 C 5 0.28125 3.039062 -0.132812 1.34375 -0.96875 L 1.34375 -5.0625 C 2.738281 -4.4375 3.921875 -3.992188 4.890625 -3.734375 C 5.867188 -3.484375 6.757812 -3.359375 7.5625 -3.359375 C 8.53125 -3.359375 9.269531 -3.539062 9.78125 -3.90625 C 10.300781 -4.28125 10.5625 -4.832031 10.5625 -5.5625 C 10.5625 -5.96875 10.445312 -6.328125 10.21875 -6.640625 C 9.988281 -6.960938 9.65625 -7.269531 9.21875 -7.5625 C 8.78125 -7.851562 7.882812 -8.320312 6.53125 -8.96875 C 5.257812 -9.5625 4.304688 -10.132812 3.671875 -10.6875 C 3.035156 -11.238281 2.523438 -11.878906 2.140625 -12.609375 C 1.765625 -13.335938 1.578125 -14.191406 1.578125 -15.171875 C 1.578125 -17.003906 2.195312 -18.445312 3.4375 -19.5 C 4.6875 -20.550781 6.410156 -21.078125 8.609375 -21.078125 C 9.691406 -21.078125 10.722656 -20.945312 11.703125 -20.6875 C 12.679688 -20.4375 13.707031 -20.078125 14.78125 -19.609375 L 13.359375 -16.1875 C 12.253906 -16.644531 11.335938 -16.960938 10.609375 -17.140625 C 9.878906 -17.316406 9.164062 -17.40625 8.46875 -17.40625 C 7.632812 -17.40625 6.992188 -17.210938 6.546875 -16.828125 C 6.109375 -16.441406 5.890625 -15.9375 5.890625 -15.3125 C 5.890625 -14.914062 5.976562 -14.570312 6.15625 -14.28125 C 6.332031 -14 6.617188 -13.722656 7.015625 -13.453125 C 7.410156 -13.179688 8.34375 -12.695312 9.8125 -12 C 11.75 -11.070312 13.078125 -10.140625 13.796875 -9.203125 C 14.515625 -8.265625 14.875 -7.117188 14.875 -5.765625 Z M 14.875 -5.765625 "/></g></g></g><g fill="#ffffff" fill-opacity="1"><g transform="translate(212.174874, 212.970879)"><g><path d="M 21.484375 -10.421875 C 21.484375 -6.984375 20.628906 -4.335938 18.921875 -2.484375 C 17.210938 -0.640625 14.765625 0.28125 11.578125 0.28125 C 8.398438 0.28125 5.957031 -0.640625 4.25 -2.484375 C 2.539062 -4.335938 1.6875 -6.992188 1.6875 -10.453125 C 1.6875 -13.910156 2.539062 -16.550781 4.25 -18.375 C 5.96875 -20.195312 8.421875 -21.109375 11.609375 -21.109375 C 14.804688 -21.109375 17.25 -20.1875 18.9375 -18.34375 C 20.632812 -16.507812 21.484375 -13.867188 21.484375 -10.421875 Z M 6.3125 -10.421875 C 6.3125 -8.097656 6.75 -6.347656 7.625 -5.171875 C 8.507812 -3.992188 9.828125 -3.40625 11.578125 -3.40625 C 15.097656 -3.40625 16.859375 -5.742188 16.859375 -10.421875 C 16.859375 -15.097656 15.109375 -17.4375 11.609375 -17.4375 C 9.859375 -17.4375 8.535156 -16.847656 7.640625 -15.671875 C 6.753906 -14.492188 6.3125 -12.742188 6.3125 -10.421875 Z M 6.3125 -10.421875 "/></g></g></g><g fill="#ffffff" fill-opacity="1"><g transform="translate(235.342978, 212.970879)"><g><path d="M 2.609375 0 L 2.609375 -20.78125 L 7.015625 -20.78125 L 7.015625 -3.640625 L 15.453125 -3.640625 L 15.453125 0 Z M 2.609375 0 "/></g></g></g><g fill="#ffffff" fill-opacity="1"><g transform="translate(251.788068, 212.970879)"><g><path d="M 19.53125 -20.78125 L 19.53125 -7.328125 C 19.53125 -5.796875 19.1875 -4.453125 18.5 -3.296875 C 17.8125 -2.140625 16.816406 -1.253906 15.515625 -0.640625 C 14.222656 -0.0234375 12.691406 0.28125 10.921875 0.28125 C 8.242188 0.28125 6.164062 -0.398438 4.6875 -1.765625 C 3.207031 -3.140625 2.46875 -5.015625 2.46875 -7.390625 L 2.46875 -20.78125 L 6.859375 -20.78125 L 6.859375 -8.0625 C 6.859375 -6.457031 7.179688 -5.28125 7.828125 -4.53125 C 8.472656 -3.78125 9.539062 -3.40625 11.03125 -3.40625 C 12.46875 -3.40625 13.507812 -3.78125 14.15625 -4.53125 C 14.8125 -5.289062 15.140625 -6.476562 15.140625 -8.09375 L 15.140625 -20.78125 Z M 19.53125 -20.78125 "/></g></g></g><g fill="#ffffff" fill-opacity="1"><g transform="translate(273.790661, 212.970879)"><g><path d="M 10.625 0 L 6.21875 0 L 6.21875 -17.109375 L 0.578125 -17.109375 L 0.578125 -20.78125 L 16.28125 -20.78125 L 16.28125 -17.109375 L 10.625 -17.109375 Z M 10.625 0 "/></g></g></g><g fill="#ffffff" fill-opacity="1"><g transform="translate(290.647944, 212.970879)"><g><path d="M 2.609375 0 L 2.609375 -20.78125 L 7.015625 -20.78125 L 7.015625 0 Z M 2.609375 0 "/></g></g></g><g fill="#ffffff" fill-opacity="1"><g transform="translate(300.284738, 212.970879)"><g><path d="M 21.484375 -10.421875 C 21.484375 -6.984375 20.628906 -4.335938 18.921875 -2.484375 C 17.210938 -0.640625 14.765625 0.28125 11.578125 0.28125 C 8.398438 0.28125 5.957031 -0.640625 4.25 -2.484375 C 2.539062 -4.335938 1.6875 -6.992188 1.6875 -10.453125 C 1.6875 -13.910156 2.539062 -16.550781 4.25 -18.375 C 5.96875 -20.195312 8.421875 -21.109375 11.609375 -21.109375 C 14.804688 -21.109375 17.25 -20.1875 18.9375 -18.34375 C 20.632812 -16.507812 21.484375 -13.867188 21.484375 -10.421875 Z M 6.3125 -10.421875 C 6.3125 -8.097656 6.75 -6.347656 7.625 -5.171875 C 8.507812 -3.992188 9.828125 -3.40625 11.578125 -3.40625 C 15.097656 -3.40625 16.859375 -5.742188 16.859375 -10.421875 C 16.859375 -15.097656 15.109375 -17.4375 11.609375 -17.4375 C 9.859375 -17.4375 8.535156 -16.847656 7.640625 -15.671875 C 6.753906 -14.492188 6.3125 -12.742188 6.3125 -10.421875 Z M 6.3125 -10.421875 "/></g></g></g><g fill="#ffffff" fill-opacity="1"><g transform="translate(323.452843, 212.970879)"><g><path d="M 21.046875 0 L 15.453125 0 L 6.40625 -15.71875 L 6.28125 -15.71875 C 6.457031 -12.945312 6.546875 -10.96875 6.546875 -9.78125 L 6.546875 0 L 2.609375 0 L 2.609375 -20.78125 L 8.171875 -20.78125 L 17.203125 -5.21875 L 17.296875 -5.21875 C 17.148438 -7.914062 17.078125 -9.820312 17.078125 -10.9375 L 17.078125 -20.78125 L 21.046875 -20.78125 Z M 21.046875 0 "/></g></g></g><g fill="#ffffff" fill-opacity="1"><g transform="translate(347.118422, 212.970879)"><g><path d="M 14.875 -5.765625 C 14.875 -3.890625 14.195312 -2.410156 12.84375 -1.328125 C 11.5 -0.253906 9.625 0.28125 7.21875 0.28125 C 5 0.28125 3.039062 -0.132812 1.34375 -0.96875 L 1.34375 -5.0625 C 2.738281 -4.4375 3.921875 -3.992188 4.890625 -3.734375 C 5.867188 -3.484375 6.757812 -3.359375 7.5625 -3.359375 C 8.53125 -3.359375 9.269531 -3.539062 9.78125 -3.90625 C 10.300781 -4.28125 10.5625 -4.832031 10.5625 -5.5625 C 10.5625 -5.96875 10.445312 -6.328125 10.21875 -6.640625 C 9.988281 -6.960938 9.65625 -7.269531 9.21875 -7.5625 C 8.78125 -7.851562 7.882812 -8.320312 6.53125 -8.96875 C 5.257812 -9.5625 4.304688 -10.132812 3.671875 -10.6875 C 3.035156 -11.238281 2.523438 -11.878906 2.140625 -12.609375 C 1.765625 -13.335938 1.578125 -14.191406 1.578125 -15.171875 C 1.578125 -17.003906 2.195312 -18.445312 3.4375 -19.5 C 4.6875 -20.550781 6.410156 -21.078125 8.609375 -21.078125 C 9.691406 -21.078125 10.722656 -20.945312 11.703125 -20.6875 C 12.679688 -20.4375 13.707031 -20.078125 14.78125 -19.609375 L 13.359375 -16.1875 C 12.253906 -16.644531 11.335938 -16.960938 10.609375 -17.140625 C 9.878906 -17.316406 9.164062 -17.40625 8.46875 -17.40625 C 7.632812 -17.40625 6.992188 -17.210938 6.546875 -16.828125 C 6.109375 -16.441406 5.890625 -15.9375 5.890625 -15.3125 C 5.890625 -14.914062 5.976562 -14.570312 6.15625 -14.28125 C 6.332031 -14 6.617188 -13.722656 7.015625 -13.453125 C 7.410156 -13.179688 8.34375 -12.695312 9.8125 -12 C 11.75 -11.070312 13.078125 -10.140625 13.796875 -9.203125 C 14.515625 -8.265625 14.875 -7.117188 14.875 -5.765625 Z M 14.875 -5.765625 "/></g></g></g></svg>